<svg xmlns="http://www.w3.org/2000/svg" width="512" height="512" viewBox="0 0 512 512">
  <defs>
    <linearGradient id="bg" x1="0%" y1="0%" x2="100%" y2="100%">
      <stop offset="0%" style="stop-color:#6366f1"/>
      <stop offset="100%" style="stop-color:#8b5cf6"/>
    </linearGradient>
    <linearGradient id="shine" x1="0%" y1="0%" x2="0%" y2="100%">
      <stop offset="0%" style="stop-color:rgba(255,255,255,0.4)"/>
      <stop offset="50%" style="stop-color:rgba(255,255,255,0.1)"/>
      <stop offset="100%" style="stop-color:rgba(255,255,255,0)"/>
    </linearGradient>
  </defs>
  <rect width="512" height="512" rx="100" fill="url(#bg)"/>
  <rect width="512" height="256" rx="100" fill="url(#shine)"/>
  <!-- Folder base -->
  <rect x="80" y="180" width="352" height="240" rx="24" fill="white" opacity="0.95"/>
  <!-- Folder tab -->
  <path d="M80 180 L80 140 Q80 116 104 116 L200 116 L230 150 Q236 156 244 156 L408 156 Q432 156 432 180" fill="white" opacity="0.95"/>
  <!-- Kanban lines -->
  <rect x="120" y="220" width="80" height="160" rx="8" fill="#6366f1" opacity="0.3"/>
  <rect x="216" y="220" width="80" height="160" rx="8" fill="#8b5cf6" opacity="0.3"/>
  <rect x="312" y="220" width="80" height="160" rx="8" fill="#a855f7" opacity="0.3"/>
  <!-- Cards -->
  <rect x="130" y="235" width="60" height="40" rx="4" fill="#6366f1"/>
  <rect x="130" y="285" width="60" height="30" rx="4" fill="#6366f1"/>
  <rect x="226" y="235" width="60" height="50" rx="4" fill="#8b5cf6"/>
  <rect x="226" y="295" width="60" height="35" rx="4" fill="#8b5cf6"/>
  <rect x="322" y="235" width="60" height="35" rx="4" fill="#a855f7"/>
</svg>
